<svg width="24px" height="24px" xmlns="http://www.w3.org/2000/svg" viewBox="0 0 490 490"><defs><style>.cls-1{fill:#fff;}</style></defs><title>search</title><g id="Слой_2" data-name="Слой 2"><g id="Слой_1-2" data-name="Слой 1"><path class="cls-1" d="M6,484a20.4,20.4,0,0,0,28.9,0L152.7,366.3A205.41,205.41,0,0,0,283.5,413C397.6,413,490,320.5,490,206.5S397.6,0,283.5,0,77,92.5,77,206.5a205.77,205.77,0,0,0,46.8,130.9L6,455.2A20.28,20.28,0,0,0,6,484ZM118,206.5C118,115.3,192.3,41,283.5,41S449,115.3,449,206.5,374.8,371.9,283.5,371.9,118,297.7,118,206.5Z"/></g></g></svg>